<svg width="26px" height="26px" viewBox="0 0 26.848 26.362" xmlns="http://www.w3.org/2000/svg">
    <g transform="translate(-91.794 -76.853)">
        <g transform="rotate(-3.6081 105.24 90.05)">
            <path fill="black" d="m111.25 90.038c0.11185 5.9212 2.2386 10.101 5.7839 13.803-1.282-4.4986-3.2643-6.786-2.8591-12.081 0.48054-6.2807 2.4809-9.0579 5.0208-13.758-5.7682 3.6722-8.0363 7.2381-7.9456 12.036z"/>
            <path fill="black" d="m98.615 88.118c-0.11185-5.9212-0.58294-8.8581-5.4424-11.903 2.2675 4.1701 3.6749 6.8681 3.2698 12.164-0.24027 3.1404-0.90156 5.3843-1.8511 7.4306-0.94951 2.0463-2.1873 3.895-3.5804 6.245 6.0967-2.5224 7.6947-9.1382 7.6041-13.936z"/>
            <path fill="black" d="m107.05 83.546c5.9221 0.04755 8.3426-1.9167 12.396-5.765-4.4471 1.0805-6.9977 3.3263-12.28 2.7787-6.2655-0.6494-9.4539-2.3282-14.097-4.5011 3.671 6.1977 8.199 7.3869 13.981 7.4874z"/>
            <path fill="black" d="m101.64 97.112c-5.9212 0.11185-6.4681-0.22429-10.334 4.7173 4.17-1.939 6.8457-2.6354 12.141-2.2303 6.2808 0.48054 8.5053 1.6056 13.698 4.392-2.3581-4.1255-10.707-6.9696-15.505-6.879z"/>
        </g>
        <path fill="black" d="m98.421 83.199c2.1024 6.4041 1.7623 9.5769-0.43058 13.885 3.8764-1.7457 9.3836-0.92207 15.571 1.8667-4.3995-7.0718-4.1686-11.457-1.5411-15.926-5.5757 2.5713-10.1 1.7866-13.599 0.17423z"/>
    </g>
</svg>
